# xmcd
#
# Track frame offsets:
#	150
#	14359
#	29705
#	44102
#	56942
#	69187
#	82650
#	98015
#	114667
#	129470
#	143760
#	161615
#	177282
#	191884
#
# Disc length: 2745 seconds
#
# Revision: 1
# Processed by: cddbd v1.5.2PL0 Copyright (c) Steve Scherf et al.
# Submitted via: audiograbber 1.83.01
#
DISCID=c30ab70e
DTITLE=JOÃO SILVA - INÉDITAS DE JOÃO SILVA E LUIZ GONZAGA
DYEAR=1900
DGENRE=FORRÓ
TTITLE0=JOÃO SILVASIRANO) - ARRE, ÉDUA
TTITLE1=JOÃO SILVA(DOMINGUINHOS E LUIZ CALIXTO) - SÁ MARICOTA
TTITLE2=JOÃO SILVA - MULHER SEM JUÍZO
TTITLE3=JOÃO SILVA(WALDONYS) - EU E MEU AMOR
TTITLE4=JOÃO SILVA(CHICO PESSOA) - SÁ MENINA
TTITLE5=JOÃO SILVA - TE JUREI
TTITLE6=JOÃO SILVA(AZEITONA) - FORRÓ BUFADO
TTITLE7=JOÃO SILVA - UM MINUTO DE UM BEIJO
TTITLE8=JOÃO SILVA - SEU PAQUERADOR
TTITLE9=JOÃO SILVA - FORRÓ DA SANFONINHA
TTITLE10=JOÃO SILVA - NÃO SOU REI DE NADA
TTITLE11=JOÃO SILVA - SÓ VOCÊ NÃO PERCEBEU
TTITLE12=JOÃO SILVA - ROSA E ANA
TTITLE13=JOÃO SILVA - SOSSEGA EU
EXTD=
EXTT0=
EXTT1=
EXTT2=
EXTT3=
EXTT4=
EXTT5=
EXTT6=
EXTT7=
EXTT8=
EXTT9=
EXTT10=
EXTT11=
EXTT12=
EXTT13=
PLAYORDER=
